<?xml version="1.0" encoding="utf-8"?>
<!-- Generator: Adobe Illustrator 23.0.3, SVG Export Plug-In . SVG Version: 6.00 Build 0)  -->
<svg version="1.1" id="Layer_1" xmlns="http://www.w3.org/2000/svg" xmlns:xlink="http://www.w3.org/1999/xlink" x="0px" y="0px"
	 viewBox="0 0 393.06 167.64" style="enable-background:new 0 0 393.06 167.64;" xml:space="preserve">
<style type="text/css">
	.st0{fill:#FFFFFF;}
	.st1{fill:#C7922C;}
	.st2{fill-rule:evenodd;clip-rule:evenodd;fill:none;}
	.st3{fill-rule:evenodd;clip-rule:evenodd;fill:#C7922C;}
</style>
<g>
	<g>
		<g>
			<path class="st0" d="M34.52,123.8l1.1,0.31l0.86,0.43l0.68,0.49l0.98,0.49l0.74,0.55l0.49,0.73l1.35,1.29l0.86,1.6l0.62,1.84
				l0.31,1.78l0.42,1.97v2.03l-0.12,0.86l-0.25,1.6l-0.31,0.92v0.86l-0.43,0.67l-0.31,1.04l-0.86,1.23v1.6l0.86,1.6l0.25,1.04
				l0.55,0.98v0.68l0.49,2.21v2.64l-0.31,1.78l-0.43,1.91v1.23l-0.55,0.61l-0.49,0.99l-0.98,1.35l-0.43,1.04l-0.92,0.37l-1.35,0.98
				l-1.1,0.49l-1.72,0.49l-2.7,0.19l-0.98-0.06l-0.93,0.18l-0.98-0.12h-2.09l-0.73,0.18l-0.92-0.24l-1.04,0.24l-1.97-0.49
				l-0.25-1.72v-2.76l-0.12-0.73v-4.66l0.19-2.15v-1.59l-0.19-1.17v-0.86l0.24-1.54l-0.19-1.1v-1.11l0.19-0.92v-1.72l-0.24-0.92
				v-1.04l0.24-0.62v-1.1l-0.24-0.86l0.06-0.86v-3.75l0.06-0.8v-1.97l0.12-0.8v-2.09l-0.24-0.99l0.12-1.53l0.43-2.76l2.58-0.49h2.15
				l0.8,0.18l1.04-0.31l0.8,0.31l2.15-0.31l1.84,0.37L34.52,123.8z M34.52,141.54l0.55-0.67l0.8-1.72l0.18-1.78v-1.84l-0.24-1.29
				v-0.62l-0.86-2.02l-1.47-0.86h-1.72l-2.03-0.19l-1.1,0.74v1.1l0.19,0.92v1.17l-0.24,0.67l0.12,1.96v1.84l0.13,2.03l0.86,0.79
				l1.17,0.25l0.86-0.31l1.9,0.19L34.52,141.54z M34.4,159.35l0.68-0.49l0.3-0.86l0.55-0.73l-0.12-1.17l0.24-0.98l0.13-1.66
				l-0.56-1.78l-0.12-0.92l-1.17-1.72l-0.73-0.37l-1.84,0.12h-1.91l-1.28,0.8l0.18,0.8l-0.12,0.92l0.19,1.05l-0.19,0.86l0.19,0.92
				v1.96l-0.19,1.11l0.06,0.8v1.04l0.93,0.99l1.23-0.19l0.73,0.07h1.96L34.4,159.35z"/>
			<path class="st0" d="M61.17,125.83l0.12,0.86l0.3,0.61l0.06,0.86l0.49,0.92v2.09l0.24,0.91l-0.06,0.55l0.43,0.92l-0.12,0.93
				l0.31,0.86l0.06,0.98l0.43,1.97l0.24,1.84l0.24,0.61l0.13,1.05l0.12,1.91l0.49,1.78l0.31,1.6l-0.06,0.92l0.18,0.86l0.43,1.97
				l0.37,1.66l-0.13,1.23l0.37,0.62l0.19,1.11l-0.12,0.86l0.42,0.73v1.04l0.31,1.97l0.43,1.47l-0.06,0.98l0.25,1.72v2.27l-2.09,0.19
				l-1.78,0.3l-1.84-0.3l-0.68-1.78v-1.11l-1.04-1.1H57.3l-0.8,0.18l-1.11-0.18l-0.98,0.8v1.1l-0.55,1.97l-2.03,0.3l-0.98-0.24
				l-0.74,0.37l-2.15-0.68l-0.19-2.14l0.43-1.47v-1.04l0.37-1.05l-0.12-0.92l0.12-0.86l0.49-1.66v-1.04l0.31-0.68l0.25-0.98
				l-0.12-0.86l0.49-1.9v-0.98l0.24-1.6l0.43-1.78l0.06-0.86l0.55-1.9v-1.11l0.25-1.41l0.25-2.03l0.31-1.96l0.25-0.49v-1.11
				l0.24-1.04l0.06-0.92l0.31-0.56l0.12-1.29l0.25-1.59l0.24-0.86v-0.73l0.19-1.05l0.31-0.86l0.12-1.11l-0.06-0.92l0.8-1.65
				l1.59-0.19l0.68,0.24h0.98l0.86-0.24l1.84,0.31L61.17,125.83z M59.63,154.13l-0.06-0.68l-0.37-1.11l-0.06-0.92v-1.1l-0.49-1.66
				l0.06-0.86l-0.3-0.92v-1.11l-0.5-1.65l0.12-1.04l-0.37-0.06l-0.25,1.97l-0.37,0.73l-0.06,0.92l-0.19,1.84l-0.36,2.15l-0.06,0.92
				l-0.49,1.6v1.17l-0.24,0.68l0.92,0.98l0.74-0.06h1.66l0.79-0.68L59.63,154.13z"/>
			<path class="st0" d="M77.13,125.52l0.31,0.92l0.73,1.47v1.29l0.37,0.49l0.37,0.92l0.06,0.98l0.74,1.72l0.12,1.17l0.49,0.86
				l0.06,0.61l0.37,1.23l0.49,1.78l0.37,0.86h0.49l0.61-2.09l0.37-0.61l0.43-1.96l0.55-1.84l0.49-1.78l0.49-0.92v-0.86l0.8-1.84
				l0.06-0.86l0.25-0.92l0.55-0.68l0.49-1.78h2.77l1.04,0.31h1.78l0.62,0.49l-0.86,3.68L92.05,130l-0.55,0.98v0.62l-0.8,2.02
				l-0.06,0.8l-0.43,1.1l-0.62,1.54l-0.98,3.81l-0.31,0.55l-0.18,1.1l-0.49,0.68v1.17l-0.43,0.79l-0.43,1.78l-0.49,0.98l-0.12,0.98
				l-0.25,0.55l-0.61,3.01l-0.19,2.52l0.12,0.98v5.03l0.12,0.55l-0.19,1.23l0.19,1.6l-0.49,2.03l-1.72,0.18l-0.8,0.31l-0.98-0.31
				l-2.4-0.18l-0.43-1.97l0.06-0.92l-0.12-0.92l0.12-1.97l-0.19-0.61l0.19-2.15l-0.25-0.99l0.19-1.72l-0.12-0.86l0.12-2.03
				l-0.19-1.96l-0.37-0.86l-0.61-1.54l-0.12-1.17l-0.74-1.41l-0.49-2.09l-0.37-0.61l-0.12-0.86l-0.49-1.84l-0.49-0.92l-0.31-1.16
				l-0.3-0.62l-0.31-1.78l-0.37-0.8l-0.18-1.29l-0.73-1.72l-0.37-1.78l-0.73-1.84l-0.61-1.47l-0.31-2.09l0.8-0.68l1.66,0.19
				l0.92-0.24l1.11-0.13l1.59,0.43L77.13,125.52z"/>
			<path class="st0" d="M122.93,125.77l0.12,2.03l-0.18,0.92l0.06,0.92v2.03l0.19,0.92l-0.19,1.59l0.12,1.72l-0.18,1.29l0.18,1.78
				l-0.18,0.8l0.12,1.04l-0.12,1.84l1.17,0.92l0.74,0.06l0.8-0.37l0.98,0.13l0.86,0.24l0.74-0.92l0.19-1.11l-0.19-0.92l0.19-1.72
				l-0.19-0.92l0.25-2.15l-0.25-0.55v-1.11l0.19-1.1v-2.64l-0.07-0.86l0.13-1.11l-0.13-0.67v-1.9l0.37-1.97l2.58-0.37l0.92,0.25
				l0.86-0.25l1.72,0.55l0.19,1.84l0.24,1.04l-0.18,0.92l0.06,0.86l-0.12,1.72l0.06,0.74v5.65l0.18,0.8l-0.24,0.92l0.18,1.29
				l-0.12,0.61v3.87l0.12,1.66l-0.18,1.16v8.23l0.24,1.97l-0.18,1.84v3.68l0.18,1.72l-0.55,1.78l-2.64,0.49l-0.86-0.37h-0.8
				l-1.72-0.31l-0.37-2.51l0.19-0.98l-0.13-1.9l0.13-0.86l-0.25-0.62l0.12-0.92l-0.12-1.05l0.25-1.97l-0.19-0.98l0.06-0.56v-1.23
				l0.13-0.55v-0.92l-1.11-1.04l-0.74-0.07l-0.8,0.25l-1.96-0.25l-0.86,0.8l-0.06,0.92l0.18,0.98l-0.18,1.1l0.24,0.92v2.64
				l-0.12,0.99l0.12,1.78l-0.19,0.55v3.81l-0.31,1.97l-2.64,0.18l-0.86-0.06l-2.58-0.37l-0.31-1.72l0.12-1.1l-0.24-1.78l0.24-0.8
				l-0.18-0.74l0.18-1.04v-0.92l-0.24-1.9l0.24-1.97v-4.66l-0.18-1.47v-1.29l0.18-0.61l-0.24-1.96l0.12-0.86l-0.12-1.9l0.24-0.92
				l-0.18-0.92l0.12-1.9l-0.18-0.8l0.24-2.02l-0.18-1.84v-1.66l0.18-2.02l-0.18-0.99l0.18-0.61v-2.02l0.31-1.6l1.78-0.55h0.86
				l1.65,0.24l1.66,0.13L122.93,125.77z"/>
			<path class="st0" d="M143.57,131.29l0.43-1.84l0.37-0.8l0.62-0.8l0.37-0.98l0.43-0.61l0.86-0.43l0.56-0.68l0.86-0.61l1.72-0.92
				h0.92l0.68-0.43l0.98-0.3l2.76,0.3l1.04,0.31l0.86,0.06l1.72,1.04l1.41,1.05l0.55,0.86l0.68,0.55l0.31,0.68l0.61,0.92l0.25,0.92
				l0.61,1.47v2.88l0.19,0.8v1.23l-0.19,1.78l0.25,0.68v1.17l-0.25,1.6l0.25,1.17l-0.25,1.84l0.19,0.8l-0.19,0.85l0.25,0.68v2.95
				l-0.25,0.67l0.25,1.04v4.55l-0.18,0.92l0.13,2.02l-0.43,1.6l-0.67,1.6l-0.92,1.78l-0.49,0.62l-1.41,1.17l-0.73,0.8l-2.52,0.73
				l-2.02,0.67l-1.66-0.43h-1.96l-0.92-0.43l-1.66-0.73l-1.35-1.05l-1.35-1.23l-0.73-1.53l-0.92-1.97l-0.25-1.53v-2.08l0.12-0.68
				l-0.18-1.29v-1.6l0.12-1.96l-0.19-0.86l0.13-0.61l-0.13-1.17v-1.84l0.19-0.86l-0.06-0.68v-3.99l0.12-0.55l-0.18-1.1l0.12-0.8
				l-0.06-0.98v-1.1l-0.13-0.62v-0.92l0.31-2.89L143.57,131.29z M150.5,159.35l0.73,0.86l0.98,0.25l1.85,0.18l0.73-0.24l0.92-0.56
				l0.43-0.43l0.49-0.92v-1.6l-0.25-1.23l0.18-1.84l-0.12-0.74l0.12-1.04l-0.18-1.72l0.18-1.66v-2.09l-0.12-0.67v-2.09l0.19-1.72
				l-0.25-0.61l0.12-1.29l-0.06-0.73l0.19-1.78l-0.13-1.9v-1.96l-0.31-2.33l-0.43-0.86l-0.79-0.62l-0.74-0.25h-1.66l-0.86,0.62
				l-1.23,0.86l-0.37,0.92v1.78l-0.12,0.8l0.06,0.93l-0.13,1.78l0.19,1.28l-0.06,0.55l0.12,1.17l-0.19,0.79l0.12,1.66l-0.12,1.11
				l0.19,0.73l-0.12,0.86v2.15l0.12,0.67l-0.19,2.03l0.06,0.8l-0.13,1.9l0.25,1.72l-0.06,0.86v2.89L150.5,159.35z"/>
			<path class="st0" d="M178.19,126.14l0.12,0.92v2.7l-0.12,0.68l0.25,1.05l-0.18,0.86l0.18,1.11v1.72l-0.18,1.1l0.18,0.56v1.9
				l-0.25,1.16l0.25,1.72v1.9l-0.18,1.1l0.12,1.48l-0.18,1.28l0.25,0.55v3.13l-0.12,1.6v2.03l0.12,1.71l-0.25,1.97l0.43,1.59
				l0.73,0.24l0.62,0.37h1.65l1.6-0.74l0.36-1.66l-0.25-0.98l0.19-0.8v-1.78l-0.19-1.04l0.25-0.68l-0.25-0.92v-2.94l0.13-0.98
				l-0.13-1.84l0.13-0.86v-1.05l0.12-1.84l-0.25-1.72l0.19-1.04v-2.58l-0.12-1.17l0.12-0.8v-1.11l-0.12-1.6l0.12-0.92v-1.17
				l-0.19-1.78v-1.79l0.25-0.79l0.31-1.9l2.39-0.43l1.04,0.31l0.73-0.12l2.03,0.18v2.89l0.25,0.98v0.86l-0.25,1.9v3.75l0.13,0.55
				l-0.13,1.23l0.25,1.84l-0.18,0.74v2.09l0.18,1.84l-0.25,0.73v1.04l0.18,0.74v1.23l-0.18,1.84l0.18,1.66v1.97l-0.18,0.98
				l0.25,0.74l-0.12,0.8l0.12,1.11l-0.12,0.98l0.12,0.68l-0.12,1.1v2.02l-0.25,0.49l-0.31,1.29l-0.8,1.48l-1.23,1.23l-0.49,0.8
				l-0.98,0.37l-1.59,0.92l-0.98,0.12l-0.92,0.43l-2.7,0.18l-0.8-0.36l-0.92,0.06l-0.86-0.31l-1.66-0.86l-0.8-0.8l-0.86-0.37
				l-0.62-0.92l-0.61-0.37l-0.86-1.78l-0.3-1.66l-0.25-1.96v-2.89l0.25-0.73v-1.11l-0.18-0.92v-3.5l0.18-1.04l-0.18-1.04l0.12-0.86
				l-0.19-1.84l0.13-0.67l-0.06-0.99l0.18-2.15l-0.13-0.86l0.13-0.79l-0.18-1.04l0.12-0.86v-1.66l-0.19-0.92l0.25-2.21l-0.25-1.72
				l0.25-1.04l-0.06-0.86v-1.6l-0.19-1.23l0.55-1.6l1.54-0.55l1.84,0.25l0.98-0.19l1.6,0.49L178.19,126.14z"/>
			<path class="st0" d="M209.26,136.08v-2.89l-0.31-0.86v-1.16l-0.86-1.48l-0.86-0.43h-2.09l-0.68,0.43l-0.49,0.92l-0.49,0.55
				l-0.25,1.16V137l0.55,0.86l0.25,0.79l0.73,0.55l0.62,0.86l0.67,0.37l0.43,0.73l2.21,1.53l0.67,0.8l0.68,0.49l0.62,0.73l0.8,0.68
				l1.23,1.23l1.11,1.66l0.61,0.67l0.8,1.72l0.31,1.28l0.61,1.91v1.84l-0.12,1.6l-0.37,1.91l-0.18,1.9l-0.79,1.84l-0.8,1.42
				l-0.8,0.73l-0.55,0.8l-0.86,0.12l-1.78,1.04l-1.72,0.43h-3.93l-0.86-0.43l-0.73,0.19l-0.93-0.68l-0.92-0.31l-1.35-0.85l-1.1-1.35
				l-0.37-0.74l-0.8-2.08l-0.55-1.84l0.12-1.04l-0.24-0.8l-0.07-0.92v-2.52l0.25-1.41l1.72-0.62h1.9l0.81,0.31l1.78,0.18l0.43,1.84
				l-0.19,0.98v1.72l0.25,0.98v1.23l0.43,0.8l0.49,0.49l1.04,0.43h1.66l0.99-0.37l0.49-0.61l0.3-0.98l0.49-0.61l-0.18-1.23
				l0.24-1.48l-0.13-1.9l-0.61-0.8l-0.86-1.72l-0.55-0.74l-0.86-0.8l-1.17-1.41l-1.47-0.73l-0.62-0.8l-1.47-0.98l-1.29-1.42
				l-0.61-1.1l-1.23-1.29l-0.31-0.86l-0.61-0.98l-0.8-1.6v-0.98l-0.43-0.98v-1.84l0.19-0.92l-0.13-0.67l0.31-2.08l0.3-0.99
				l0.06-0.86l0.49-1.04l0.74-1.54l0.92-1.42l0.68-0.68l0.98-0.24l0.74-0.62l0.73-0.36l0.98-0.12h1.16l0.86-0.43l2.89,0.43h1.66
				l1.91,0.92l0.68,0.61l1.29,1.11l0.49,0.8l0.67,1.9l0.68,1.59l0.12,1.97l0.37,1.96l-0.19,0.55v1.85l-0.12,1.29l-1.96,0.61
				l-0.68-0.25l-0.92,0.25l-0.8-0.13l-1.9-0.62L209.26,136.08z"/>
			<path class="st0" d="M240.7,125.83l0.19,1.11l-0.12,0.49l0.18,1.04l-0.31,1.6l-1.9,0.49l-0.98,0.13l-0.67-0.31h-0.98l-1.78,0.37
				l-1.05-0.12h-2.64l-0.67,0.12l-0.92,0.62v4.66l-0.25,0.98l0.19,1.05v2.83l0.8,0.98l0.98,0.19h0.92l0.68-0.25l1.78,0.31l0.98-0.31
				h3.62l2.03,0.43v2.64l0.18,0.92l-0.06,0.92l-0.43,1.78l-2.64,0.37l-0.92-0.3l-0.98,0.24l-0.61-0.31h-0.92l-0.98,0.31l-0.86,0.06
				l-1.91-0.3l-0.92,0.18l-0.73,0.98v1.66l-0.19,1.04l0.25,1.17v0.68l-0.19,2.02l0.19,2.03l-0.25,0.68l1.04,0.92l0.8,0.12l0.98-0.19
				l0.8,0.25h2.7l1.72-0.18l0.98,0.3l1.05-0.37l1.78,0.62l0.25,2.64l-0.12,0.86l0.18,0.86l-0.55,1.78h-1.6l-2.02,0.31h-2.7
				l-0.86-0.24l-1.6,0.12l-0.98-0.18h-0.98l-0.98,0.24l-0.67-0.06l-1.05,0.19h-0.92l-0.8-0.3l-0.8,0.06l-1.78-0.19l-0.55-2.03
				l0.19-0.8v-0.86l-0.24-1.1l0.24-0.62V158l-0.19-1.72v-4.55l0.19-0.74v-2.02l-0.24-0.8l0.24-0.86l-0.19-1.9l0.13-2.03v-1.84
				l-0.19-0.86l0.12-1.9l0.13-1.84l-0.19-0.98l0.13-0.98l-0.19-0.8l0.19-0.92l0.06-0.8v-3.68l-0.19-1.17v-1.53l0.36-2.03l1.79-0.3
				l0.92,0.18l0.86-0.18l1.9,0.24l0.91-0.24l0.8,0.24l0.92-0.24l1.97,0.18l0.67-0.31l0.92,0.25l1.05,0.12l0.8-0.24l0.86,0.06
				l0.86-0.18l2.7,0.43L240.7,125.83z"/>
		</g>
		<g>
			<g>
				<g>
					<path class="st0" d="M0,0v110.08h388.58l-29.54-55.04L388.58,0H0z M53.51,46.15l-0.19,1.03v6.46l0.05,2.77l-0.47,1.95v13.74
						l0.57,3.28l-0.15,3.07v6.15l0.29,2.87l-0.93,2.97l-4.41,0.82l-1.44-0.62H45.5l-2.87-0.51l-0.62-4.2l0.31-1.64l-0.2-3.18
						l0.2-1.44l-0.41-1.02l0.21-1.54l-0.21-1.74l0.41-3.28l-0.29-1.64l0.12-0.92v-2.05v-0.92v-1.54l-1.76-1.74l-1.19-0.1l-1.31,0.41
						l-3.27-0.41l-1.43,1.33l-0.1,1.54l0.31,1.64l-0.32,1.84l0.39,1.54v4.41l-0.18,1.64l0.14,2.97L33.04,81v6.36l-0.43,3.28
						l-4.37,0.31l-1.42-0.11l-4.29-0.61l-0.51-2.87l0.21-1.85l-0.41-2.97l0.41-1.33l-0.28-1.23l0.34-1.74v-1.54l-0.41-3.18
						l0.41-3.28v-7.79l-0.41-2.46v-2.15l0.33-1.02l-0.4-3.28l0.21-1.44l-0.2-3.18l0.41-1.54l-0.31-1.54l0.2-3.18l-0.31-1.33
						l0.38-3.38l-0.33-3.08V32.1l0.33-3.38l-0.26-1.64l0.35-1.02v-3.38l0.48-2.69l2.94-0.94h1.44l2.77,0.43l2.76,0.22l0.52,2.77
						l0.21,3.39l-0.38,1.54l0.03,1.54v3.38l0.39,1.54l-0.27,2.66l0.23,2.87l-0.3,2.15l0.31,2.97l-0.31,1.33l0.21,1.74l-0.2,3.08
						l1.94,1.54l1.24,0.1l1.33-0.62l1.64,0.21l1.43,0.41l1.23-1.54l0.31-1.85l-0.31-1.54l0.31-2.87l-0.31-1.54l0.32-3.59l-0.5-0.93
						v-1.84l0.41-1.85v-4.41l-0.07-1.44l0.24-1.85l-0.17-1.13v-3.18l0.6-3.28l4.3-0.61l1.53,0.41l1.44-0.41l2.87,0.92l0.31,3.08
						l0.41,1.74l-0.31,1.54l0.1,1.43l-0.19,2.87l0.12,1.23v9.43l0.29,1.33l-0.42,1.54L53.51,46.15z M96.74,57.38l-0.77,2.97
						l-4.43,0.62l-1.55-0.51l-1.65,0.44l-1.03-0.48h-1.54l-1.65,0.48l-1.43,0.09l-3.18-0.52l-1.48,0.31l-1.17,1.64v2.77l-0.36,1.74
						l0.36,1.95v1.13l-0.32,3.38l0.3,3.38l-0.41,1.13l1.74,1.54l1.33,0.2l1.64-0.44l1.33,0.27H87l2.87-0.17l1.64,0.58l1.74-0.58
						l2.98,1.04l0.41,4.42l-0.2,1.44l0.31,1.45l-0.92,2.99h-2.66l-3.39,0.41h-4.51l-1.44-0.38l-2.66,0.24l-1.64-0.27h-1.64
						l-1.64,0.39l-1.13-0.19l-1.74,0.22h-1.54l-1.34-0.43l-1.33,0.15l-2.98-0.29l-0.86-3.37l0.37-1.32v-1.44l-0.41-1.85l0.41-1.03
						v-5.23l-0.42-2.87v-7.58l0.42-1.23v-3.38l-0.48-1.33l0.38-1.44l-0.21-3.18l0.31-3.38v-3.08l-0.42-1.44l0.15-3.18l0.18-3.08
						l-0.32-1.64l0.2-1.64l-0.31-1.33l0.37-1.54l0.16-1.33v-6.15l-0.42-1.95v-2.56l0.61-3.39l2.97-0.51l1.54,0.31l1.44-0.31
						l3.18,0.41l1.54-0.41l1.33,0.41l1.54-0.41l3.28,0.31l1.13-0.51l1.54,0.41l1.74,0.2l1.33-0.41l1.44,0.1l1.44-0.31l4.51,0.72
						l0.52,2.98l0.3,1.84l-0.2,0.82l0.31,1.74l-0.51,2.66l-3.18,0.82l-1.64,0.25l-1.13-0.46h-1.64l-2.97,0.61l-1.74-0.2h-4.41
						l-1.12,0.15l-1.53,0.97v7.79l-0.36,1.64l0.36,1.74v4.72l1.27,1.68l1.58,0.34h1.54l1.12-0.44l2.98,0.53l1.64-0.5h6.05l3.68,0.65
						v4.41l0.16,1.53L96.74,57.38z M144.3,39.44l-0.41,1.74v2.77l0.26,1.84l-0.26,1.23v2.16v1.33v1.74l0.14,2.97l-0.39,1.13
						l0.27,3.28l-0.12,1.33l0.21,1.44l-0.1,1.64v7.69l-0.32,2.05l0.4,2.87l-0.21,1.13l0.2,1.95l-0.31,1.64l0.1,1.33l-0.2,1.33
						l0.42,1.64l-0.5,1.54v2.97l-3.2,0.45h-1.44l-1.74,0.55l-1.23-0.09l-2.87-0.81l-1.74-3.89l-0.72-2.97l-0.71-2.56l-0.72-1.23
						l-0.31-1.74l-0.61-1.23l-0.41-1.95l-0.51-1.34l-0.31-1.53l-1.12-2.77l-0.92-2.67l-0.72-2.77l-0.82-3.18l-0.82-1.44l-0.51-2.77
						l-0.62-1.74l-0.61-1.13l-0.31-1.85l-0.62,0.2l0.31,1.74l-0.3,1.44l0.42,1.33v4.72l-0.42,2.97l0.35,3.18l-0.44,1.64l0.19,1.74
						l-0.21,1.13l0.4,1.74l-0.21,1.23l0.27,1.95l-0.35,2.77v5.03l0.24,2.58l-0.57,3.71h-3.18h-1.43h-2.87l-2.95-0.24v-4.82
						l-0.25-1.33l0.25-1.33v-9.54l-0.41-2.66v-3.69v-1.03v-1.74l0.25-1.64l-0.25-3.08v-1.74l0.14-2.87l-0.23-1.44l0.19-2.87
						l-0.3-3.59l0.21-1.54v-7.18l-0.21-3.38l0.41-2.77l-0.2-1.44v-3.28l0.3-3.39l-0.46-1.54l0.69-3.18l3.06-0.51l1.22,0.1l1.84,0.51
						l1.23-0.62l2.97,0.62l0.72,2.46l0.61,1.13l0.43,1.74l1.05,1.23v1.74l1,2.77l0.97,2.77l0.89,3.38l0.5,1.23l0.09,1.13l0.61,1.64
						l1.43,4.31l1.03,2.77l0.3,1.95l1.13,2.77l0.2,1.54l1.23,3l0.1,1.36h0.41l0.58-3.61l-0.14-1.26v-6.46l0.14-2.46l-0.39-2.05
						l0.27-1.33l-0.37-1.23l0.36-1.54v-3.69l-0.37-1.03l0.18-1.84l-0.22-1.13v-3.69l0.39-2.77l-0.11-1.23l0.71-3.28l2.56-0.72
						l1.54-0.2l1.64,0.31l1.13-0.31l2.99,0.62l0.73,3.18v1.64l0.19,3.18l-0.35,1.54l0.16,1.13v3.69l-0.05,1.54l0.46,1.13V39.44z
						 M189.52,41.2v3.59l-0.51,1.13l-0.72,3.18l-0.51,0.92l-0.92,2.67l-1.84,2.46l-0.2,2.36l1.43,0.82l0.82,1.13l0.92,3.28
						l0.82,2.56l-0.41,3.18l0.41,3.08l-0.21,1.33l0.21,1.74l-0.31,1.44l-0.1,1.64l0.62,1.95v9.74l-0.42,0.82l-3.07,0.82l-1.13-0.1
						l-1.54,0.31h-1.43l-2.25-0.62l-1.33-1.74l-0.51-3.59l0.31-1.33l-0.51-2.98l0.41-2.05l-0.31-2.97l0.31-2.87l-0.31-3.18l0.1-1.64
						V65.4l-1.64-3.28l-1.84-1.03l-5.74-0.41l-1.84,1.54l0.1,1.64l-0.21,1.64v6.35l0.21,1.34v3.38l-0.21,1.23l0.21,1.85l-0.21,1.33
						l0.41,1.54V86l-0.72,4.31l-2.77,0.92l-1.54-0.62l-2.87,0.52l-2.87-0.52l-0.82-3.18v-4.82l0.21-2.77l-0.31-1.54v-1.44l0.41-1.95
						l-0.41-2.67l0.31-1.84l-0.21-1.33l0.31-3.49l-0.31-2.66l0.21-2.05l-0.31-0.92l0.41-3.28l-0.41-1.44V44.27l0.2-2.87l-0.2-2.97
						l0.41-1.54v-2.05l-0.41-2.77l0.31-1.95l-0.21-2.77l0.21-1.33v-1.85l-0.31-1.43l0.82-3.38l4.51-0.51l1.33,0.31l1.54-0.2h3.08
						l1.23,0.51l1.75-0.31l1.53,0.2l4.2-0.31l1.75,0.72h1.23l1.84,0.62l2.26,1.74l1.54,0.41l0.92,1.54l1.23,0.92l1.64,2.67
						l0.21,1.44l0.82,1.74l0.92,2.77v1.74l0.72,2.67L189.52,41.2z M230.59,26.42l-0.71,3.08l-0.81,1.64v1.02l-1.45,3.38l-0.16,1.33
						l-0.74,1.84l-1.04,2.56l-1.65,6.36l-0.52,0.92l-0.28,1.84l-0.79,1.13v1.95l-0.75,1.33l-0.73,2.97l-0.83,1.64l-0.21,1.64
						l-0.41,0.92l-1.03,5.02l-0.14,4.2l0.37,1.64v8.41l0.04,0.92l-0.39,2.05l0.27,2.67l-0.84,3.38l-2.88,0.31l-1.34,0.51l-1.64-0.51
						l-4-0.31l-0.72-3.28l0.1-1.54l-0.21-1.54l0.21-3.28l-0.31-1.03l0.31-3.59l-0.41-1.64l0.31-2.87l-0.2-1.43l0.2-3.39l-0.31-3.28
						l-0.62-1.44l-1.02-2.56l-0.2-1.95l-1.23-2.36l-0.82-3.49l-0.62-1.03l-0.2-1.44l-0.82-3.07l-0.82-1.54l-0.51-1.95l-0.52-1.02
						l-0.51-2.97l-0.61-1.33l-0.31-2.15l-1.23-2.87l-0.61-2.97l-1.23-3.08l-1.03-2.46l-0.51-3.49l1.33-1.13l2.77,0.31l1.54-0.41
						l1.84-0.2l2.67,0.72l1.23,2.46l0.57,1.53l1.29,2.46v2.15l0.55,0.82l0.59,1.54l0.09,1.64l1.22,2.87l0.2,1.95l0.82,1.44l0.1,1.02
						l0.62,2.05l0.82,2.99l0.62,1.45h0.82l1.03-3.5l0.61-1.04l0.72-3.28l0.93-3.08l0.93-2.97l0.93-1.54v-1.44l1.22-3.08l0.05-1.44
						l0.38-1.54l0.91-1.07l0.81-2.93h4.61l1.75,0.42H231l1.03,0.82L230.59,26.42z M269.7,72.45l-0.37,2.66l-0.7,3.18l-0.35,3.18
						l-1.35,3.08l-1.34,2.36l-1.33,1.23l-0.93,1.33l-1.43,0.2l-2.97,1.61l-2.87,0.59h-6.56l-1.44-0.59l-1.23,0.37l-1.54-1.09
						l-1.54-0.5l-2.26-1.43l-1.84-2.25l-0.61-1.23l-1.34-3.48l-0.91-3.07l0.2-1.74l-0.34-1.33l-0.04-1.54v-4.2l0.35-2.45l2.81-1.12
						h3.18l1.33,0.6l2.97,0.36l0.78,3.1l-0.24,1.66v2.87l0.41,1.64v2.05l0.65,1.33l0.79,0.69l1.71,0.59h2.77l1.64-0.49l0.82-0.96
						l0.52-1.61l0.82-1.01l-0.31-2.04l0.41-2.46l-0.21-3.18l-1.02-1.33l-1.44-2.87l-0.92-1.23l-1.43-1.33l-1.95-2.36l-2.46-1.23
						l-1.03-1.33l-2.46-1.64l-2.15-2.36l-1.02-1.85l-2.05-2.16l-0.51-1.43l-1.01-1.64l-1.32-2.67v-1.64l-0.42-1.64v-3.07l0.14-1.54
						l-0.28-1.13l0.47-3.48l0.49-1.64l0.09-1.44l0.82-1.74l1.23-2.56l1.53-2.36l1.13-1.13l1.64-0.41l1.23-1.03l1.23-0.67l1.64-0.26
						h1.95l1.44-0.72l4.82,0.72h2.77l3.17,1.59l1.13,1.05l2.15,1.86l0.82,1.34l1.12,3.18l1.13,2.67l0.21,3.28l0.78,3.28l-0.15,0.92
						v3.07l-0.37,2.16l-3.36,1.03l-1.17-0.41l-1.56,0.41l-1.34-0.2l-3.07-1.02l-0.3-2.77v-4.82l-0.42-1.44v-1.95l-1.59-2.52
						l-1.59-0.78h-3.48l-1.13,0.78l-0.82,1.57l-0.66,0.94l-0.24,1.96v7.79l0.75,1.43l0.33,1.33l1.19,0.92l1,1.44l1.12,0.62
						l0.71,1.23l3.69,2.57l1.13,1.33l1.13,0.82l1.03,1.23l1.33,1.13l2.05,2.05l1.85,2.77l1.03,1.13l1.33,2.87l0.68,2.15l1.19,3.18
						V72.45z"/>
				</g>
				<polygon class="st0" points="177.62,34.02 176.8,32.49 174.96,30.54 170.55,30.54 167.88,30.74 166.14,32.18 166.55,33.82 
					166.55,35.36 166.25,36.48 166.55,40.17 166.14,41.71 166.14,44.89 166.55,46.43 166.35,47.56 167.88,49.4 170.65,49.09 
					171.88,49.3 175.06,48.99 176.29,48.17 177.11,46.94 177.83,44.48 178.65,41.3 178.65,38.74 178.04,36.79 				"/>
			</g>
		</g>
		<g>
			<path class="st0" d="M262.37,124.18l0.53-0.05l0.41,0.05l0.32,0.11l1.5,0.73l0.24,0.37l0.35,0.27l0.48,0.72l0.33,0.75l0.24,0.73
				v0.45l0.13,0.43v1.53l-0.13,0.42l-0.11,0.78l-0.21,0.83l-0.32,0.78l-0.4,0.62v0.56l0.16,0.4l0.29,0.4l0.35,0.7l0.27,0.81
				l0.06,0.4v0.83l-0.08,0.89l-0.16,0.81l-0.24,0.64l-0.51,0.75l-0.41,0.73l-0.32,0.26l-0.75,0.27l-0.33,0.35l-0.37-0.03l-0.89,0.21
				l-0.35,0.16l-0.41-0.11l-0.88,0.16l-0.43-0.08l-0.4,0.05l-0.43-0.05l-0.4,0.03l-0.3-0.05l-1.31,0.14l-0.81-0.3l-0.16-0.67v-1.99
				l0.08-0.57l-0.11-0.24l0.11-0.43v-0.51l-0.11-0.33l0.05-0.35l-0.05-0.48v-0.75l0.08-0.41v-0.8l-0.05-0.54v-0.72l0.08-0.43v-1.64
				l-0.06-0.32v-3.68l0.06-0.32l-0.06-0.51v-0.7l-0.05-0.48l0.24-1.66l0.83-0.05h2.04l0.81-0.11l1.23,0.11L262.37,124.18z
				 M262.37,139.71l0.4-0.13l0.65-0.33l0.35-0.67l0.18-0.75v-0.8l-0.49-0.94l-0.32-0.32l-0.41-0.05l-0.72-0.27l-0.86,0.11l-0.4-0.16
				h-0.38l-0.56,0.37l0.13,1.26l-0.11,1.18l0.11,1.32l0.43,0.38l0.38-0.08l0.48,0.13l0.75-0.13L262.37,139.71z M262.8,132.2
				l0.49-0.46l0.29-0.4l0.24-0.61l0.08-0.38l-0.03-0.38l0.11-0.83l-0.16-0.8l-0.24-0.4l-0.22-0.24l-0.59-0.4l-0.43-0.19h-1.21
				l-0.4-0.13l-0.4,0.05l-0.43,0.35l-0.02,0.4l0.08,0.46l-0.08,1.18l0.08,0.67v0.83l-0.11,0.37v0.88l0.48,0.35l0.43-0.06h1.66
				L262.8,132.2z"/>
			<path class="st0" d="M275.31,124.95l0.05,0.38l0.13,0.27l0.03,0.38l0.21,0.4v0.91l0.11,0.4l-0.03,0.24l0.19,0.4l-0.05,0.4
				l0.13,0.38l0.03,0.42l0.19,0.86l0.11,0.81l0.11,0.27l0.05,0.46l0.06,0.84l0.21,0.77l0.14,0.7l-0.03,0.4l0.08,0.37l0.19,0.86
				l0.16,0.72l-0.06,0.54l0.16,0.26l0.08,0.48l-0.05,0.38l0.18,0.32v0.46l0.14,0.86l0.19,0.64l-0.03,0.42l0.11,0.75v0.99l-0.91,0.08
				l-0.78,0.14l-0.81-0.14l-0.29-0.78v-0.48l-0.46-0.49h-1.24l-0.35,0.08l-0.49-0.08l-0.43,0.35v0.48l-0.24,0.86l-0.89,0.13
				l-0.43-0.11l-0.33,0.16l-0.94-0.3l-0.08-0.94l0.19-0.65v-0.46l0.16-0.46l-0.05-0.4l0.05-0.37l0.21-0.73v-0.45l0.14-0.3l0.11-0.43
				l-0.05-0.37l0.22-0.83v-0.43l0.11-0.7l0.19-0.78l0.03-0.38l0.24-0.83v-0.48l0.11-0.62l0.11-0.89l0.13-0.86l0.11-0.22v-0.48
				l0.11-0.46l0.03-0.4l0.13-0.24l0.05-0.56l0.11-0.7l0.11-0.38v-0.32l0.08-0.46l0.14-0.37l0.05-0.48l-0.02-0.4l0.35-0.73l0.7-0.08
				l0.29,0.11h0.43l0.37-0.11l0.8,0.14L275.31,124.95z M274.64,137.33l-0.03-0.29l-0.16-0.48l-0.02-0.4v-0.48l-0.21-0.72l0.02-0.38
				l-0.13-0.4v-0.48l-0.21-0.73l0.05-0.45l-0.16-0.03l-0.11,0.86l-0.16,0.32l-0.03,0.4l-0.08,0.8l-0.16,0.94l-0.03,0.4l-0.22,0.7
				v0.51l-0.11,0.29l0.4,0.43l0.32-0.03h0.72l0.35-0.3L274.64,137.33z"/>
			<path class="st0" d="M287.17,124.23h0.32l0.49,0.16l0.58,0.46l0.4,0.11l0.24,0.41l0.32,0.24l0.43,0.7l0.05,0.38l0.21,0.46
				l0.24,0.73v0.45l0.19,0.7l-0.11,0.83v0.94l-0.14,0.29l-0.19,0.83l-0.13,0.24l-0.24,0.7l-0.48,0.64l-0.05,0.62l0.37,0.21
				l0.22,0.29l0.24,0.86l0.21,0.67l-0.11,0.83l0.11,0.81l-0.05,0.35l0.05,0.46l-0.08,0.37l-0.02,0.43l0.16,0.51v2.55l-0.1,0.22
				l-0.81,0.21l-0.29-0.03l-0.41,0.08h-0.37l-0.59-0.16l-0.35-0.46l-0.14-0.94l0.08-0.35l-0.13-0.77l0.11-0.54l-0.08-0.78l0.08-0.75
				l-0.08-0.83l0.02-0.43v-0.75l-0.42-0.86l-0.49-0.27l-1.5-0.1l-0.48,0.4l0.03,0.43l-0.05,0.43v1.66l0.05,0.35v0.89l-0.05,0.32
				l0.05,0.49l-0.05,0.35l0.11,0.4v0.92l-0.19,1.12l-0.73,0.24l-0.4-0.16l-0.75,0.14l-0.75-0.14l-0.21-0.83v-1.26l0.05-0.73
				l-0.08-0.4v-0.38l0.11-0.51l-0.11-0.69l0.08-0.48l-0.05-0.35l0.08-0.91l-0.08-0.7l0.05-0.54l-0.08-0.24l0.11-0.86l-0.11-0.37
				v-2.87l0.05-0.75l-0.05-0.77l0.11-0.41v-0.54l-0.11-0.73l0.08-0.51l-0.05-0.72l0.05-0.35v-0.48l-0.08-0.37l0.21-0.89l1.18-0.13
				l0.35,0.08l0.4-0.05h0.8l0.32,0.14l0.45-0.08l0.4,0.05l1.1-0.08L287.17,124.23z M287.09,131.67l0.21-0.33l0.18-0.64l0.22-0.83
				v-0.67l-0.16-0.51l-0.11-0.73l-0.21-0.4l-0.49-0.51h-1.15l-0.7,0.05l-0.46,0.38l0.11,0.43v0.4l-0.08,0.3l0.08,0.97l-0.11,0.4
				v0.83l0.11,0.4l-0.06,0.3l0.4,0.48l0.73-0.08l0.32,0.05l0.83-0.08L287.09,131.67z"/>
			<path class="st0" d="M308.29,123.91l0.78,0.08l0.38,0.24l0.27,0.27l0.19,0.43l0.27,0.24l0.19,0.43v0.7l-0.16,0.35l-0.11,0.43
				l-0.22,0.4l-0.37,0.16l-0.62,0.05l-0.3-0.24l-0.05-0.67l0.54-0.7v-0.86l-0.22-0.18l-0.35-0.11l-1.18-0.08l-0.78,0.3l-0.38,0.08
				l-0.18,0.41l-0.27,0.16l-0.3,0.78l-0.05,0.73l0.3,0.8l0.35,0.51l0.83,0.29l0.4-0.14l1.4,0.11l0.29,0.27l0.46,0.08l0.19,0.38v0.8
				l-0.11,0.35l-0.54,0.7l-0.46,0.11l-0.27,0.29l-0.46,0.05h-1.1l-0.83-0.32l-0.21-0.19l-0.67,0.16l-0.48,0.69l-0.11,0.35l-0.24,0.3
				v0.51l-0.24,1.21v0.81l0.16,0.43v0.83l0.16,0.3l0.27,0.89l0.18,0.19l0.11,0.51l0.27,0.21l0.21,0.29l1.21,1.1l1.61,0.4l0.4-0.11
				h1.61l0.4-0.08l0.7-0.37l0.62-0.46l0.59-0.64l0.11-0.38l0.05-0.43v-0.83l-0.24-0.67l-0.38-0.75l-0.24-0.29l-0.35-0.27l-0.21-0.24
				l-0.75-0.46l-0.35,0.08l-0.81-0.05l-0.72,0.19l-0.29,0.4l-0.35,0.33l-0.16,0.37l0.05,0.75l0.32,0.67l0.35,0.06l-0.08-0.54
				l0.19-0.35l0.35-0.33H310l0.43,0.14l0.33,0.29l0.16,0.27v0.89l-0.3,0.7l-0.37,0.27l-0.35,0.05l-0.43,0.19h-0.75l-1.16-0.43
				l-0.32-0.19l-0.59-0.54l-0.56-1.13v-0.81l0.19-0.83l0.83-0.89l0.35-0.16l0.21-0.4l0.7-0.37l0.4-0.13l0.46-0.05l0.29-0.27
				l0.75-0.06l0.46-0.14l0.75-0.33l0.35-0.05l0.73-0.37l0.67-0.48l0.29-0.78v-0.64l-0.18-0.38l-0.13-0.46l-0.43-0.19l0.11,0.22v0.72
				l-0.64,0.35h-0.81l-0.32-0.16l-0.32-0.24l-0.24-0.46l-0.08-0.72l0.27-0.51l0.26-0.18l0.46-0.16l1.21-0.21l0.4,0.19l0.43,0.05
				l0.32,0.32l0.18,0.27l0.27,0.27l0.38,0.76l0.11,0.72v1.15l-0.27,0.75l-0.4,0.67l-0.33,0.3l-0.59,0.4l-0.38,0.16l-0.29,0.24v0.54
				l0.24,0.19l0.24,0.32l0.42,0.75l0.3,0.38l0.29,0.67l0.19,1.62l-0.59,1.87l-0.22,0.29l-0.24,0.19l-0.32,0.46l-0.59,0.54
				l-0.32,0.11l-0.3,0.32l-0.37,0.16l-0.3,0.27l-0.73,0.24l-0.46,0.06l-0.4,0.21l-0.4,0.03l-0.81,0.19h-1.13l-0.37-0.08l-0.43,0.05
				l-0.48-0.19l-0.35,0.08l-0.73-0.29l-0.43-0.06l-1.13-0.57l-0.24-0.4l-0.67-0.35l-0.51-0.75l-0.29-0.24l-0.62-1.16l-0.3-1.1
				l-0.16-0.35l0.03-0.32l-0.08-0.54l0.05-0.78l-0.08-0.46l0.16-0.4l-0.03-0.3l0.21-0.72l0.41-0.78l0.08-0.38l0.46-0.83l0.29-0.24
				l0.24-0.4l0.24-0.24l0.29-0.19l0.3-0.43l0.29-0.13l0.3-0.3l0.14-0.51l-0.44-0.86l-0.21-0.72v-0.86l0.11-0.43v-0.29l0.22-0.46
				l0.59-0.99l0.4-0.29l0.19-0.08l0.43-0.35l0.32-0.13l0.27-0.3l0.4-0.05l0.43-0.16l0.67-0.14l0.83,0.08L308.29,123.91z
				 M307.51,130.54l0.4,0.02l0.73-0.11v-0.59l-0.3-0.14l-1.05,0.08l-0.08,0.46L307.51,130.54z"/>
			<path class="st0" d="M262.82,148.42l0.46,0.19l0.37,0.08l0.43,0.16l0.27,0.21l0.7,0.35l0.48,0.7l0.29,0.83l0.16,0.24l0.05,0.43
				l0.13,0.51l-0.03,0.27l0.14,0.59l-0.03,0.37l0.05,0.46l-0.05,0.83l0.03,0.35l-0.11,0.78l-0.05,0.86l-0.19,0.43l-0.03,0.43
				l-0.24,0.4l-0.37,0.75l-0.06,0.49l0.32,0.24l0.22,0.35v0.49l0.19,0.4l0.05,0.29l-0.05,0.7l0.05,0.81l-0.08,0.83l0.11,0.69
				l-0.11,0.94l0.11,0.72l-0.02,0.41l0.18,0.72l-0.21,0.37l-0.89,0.14l-0.51-0.06l-0.46,0.11l-0.64-0.11l-0.35-0.4l-0.06-0.4v-2.01
				l-0.11-0.78v-1.53l0.08-0.46v-0.7l-0.33-0.77l-1.15-0.22l-0.81-0.08l-0.48,0.13l-0.38,0.27v0.46l-0.08,0.4l0.08,0.48v0.35
				l-0.08,0.35l0.08,0.45l-0.05,0.75l0.05,0.46l-0.05,0.81l0.02,0.43l-0.05,0.42l-0.03,0.24v1.29l-0.8,0.05l-0.38,0.14l-0.38-0.11
				l-0.35,0.05l-0.81-0.16l-0.19-1.15v-2.93l0.05-0.3l-0.08-0.8l0.05-0.86l-0.03-0.43l0.08-0.35v-2.44l-0.08-0.35v-1.61l0.08-0.78
				l-0.11-0.91l0.03-0.4v-0.75l0.05-0.89l-0.08-0.27l0.08-0.54l-0.05-0.41l0.08-0.29l-0.08-0.35v-0.51l0.19-1.2l1.15-0.16l0.54,0.05
				h0.77l0.38-0.05l0.48,0.08l0.29-0.11l0.89,0.16l0.78-0.05L262.82,148.42z M262.74,156.73l0.27-0.37l0.11-0.46l0.19-0.46
				l0.02-0.32l-0.05-0.51v-0.86l0.05-0.75l-0.14-0.43l-0.21-0.62l-0.32-0.37l-0.24-0.14h-1.29l-0.32-0.05h-0.51l-0.38,0.32
				l-0.05,0.49l0.05,0.81l-0.05,0.43l0.08,0.35l-0.08,0.46l0.05,0.24l-0.05,0.49l0.08,0.81l-0.08,0.67l0.4,0.51l0.48,0.05l0.37-0.08
				l1.26-0.08L262.74,156.73z"/>
			<path class="st0" d="M277.96,149.36l0.08,0.48l-0.06,0.21l0.08,0.45l-0.13,0.7l-0.83,0.21l-0.43,0.05l-0.29-0.13h-0.43
				l-0.78,0.16l-0.46-0.06h-1.16l-0.29,0.06l-0.41,0.26v2.04l-0.1,0.43l0.08,0.46v1.24l0.35,0.43l0.43,0.08h0.4l0.3-0.11l0.78,0.13
				l0.43-0.13h1.59l0.88,0.19v1.15l0.08,0.41l-0.02,0.4l-0.19,0.78l-1.15,0.16l-0.4-0.14l-0.43,0.11l-0.27-0.14h-0.4l-0.43,0.14
				l-0.38,0.02l-0.83-0.14l-0.4,0.08l-0.33,0.43v0.73l-0.08,0.45l0.1,0.51v0.29l-0.08,0.89l0.08,0.89l-0.1,0.29l0.45,0.4l0.35,0.05
				l0.43-0.08l0.35,0.11h1.18l0.75-0.08l0.43,0.13l0.45-0.16l0.78,0.27l0.11,1.15l-0.06,0.38l0.08,0.37l-0.24,0.78h-0.7l-0.88,0.14
				h-1.18l-0.37-0.11l-0.7,0.05l-0.43-0.08h-0.43l-0.43,0.11l-0.29-0.03l-0.46,0.08h-0.4l-0.35-0.13l-0.35,0.03l-0.78-0.09
				l-0.24-0.88l0.08-0.35v-0.37l-0.11-0.48l0.11-0.27v-1.37l-0.08-0.75v-1.99l0.08-0.32v-0.89l-0.11-0.35l0.11-0.37l-0.08-0.83
				l0.05-0.89v-0.8l-0.08-0.38l0.05-0.83l0.06-0.81l-0.08-0.43l0.05-0.43L269.8,153l0.08-0.41l0.03-0.35v-1.61l-0.08-0.51v-0.67
				l0.16-0.88l0.78-0.14l0.4,0.08l0.37-0.08l0.83,0.11l0.4-0.11l0.35,0.11l0.4-0.11l0.85,0.08l0.3-0.14l0.4,0.11l0.46,0.05
				l0.35-0.11l0.37,0.03l0.38-0.08l1.18,0.19L277.96,149.36z"/>
			<path class="st0" d="M285.93,153.84v-1.26l-0.13-0.38v-0.51l-0.38-0.64l-0.37-0.19h-0.91l-0.3,0.19l-0.21,0.4l-0.21,0.24
				l-0.11,0.51v2.04l0.24,0.38l0.11,0.35l0.32,0.24l0.27,0.37l0.3,0.16l0.19,0.32l0.97,0.67l0.29,0.35l0.3,0.22l0.27,0.32l0.35,0.3
				l0.54,0.54l0.49,0.72l0.27,0.29l0.35,0.75l0.13,0.57l0.27,0.83v0.8l-0.05,0.7l-0.16,0.83l-0.08,0.83l-0.35,0.8l-0.35,0.62
				l-0.35,0.32l-0.24,0.35l-0.38,0.05l-0.78,0.46l-0.75,0.19h-1.72l-0.37-0.19l-0.32,0.08l-0.4-0.3l-0.41-0.13l-0.58-0.38
				l-0.48-0.59l-0.16-0.32l-0.35-0.91l-0.24-0.81l0.05-0.46l-0.11-0.35l-0.03-0.4v-1.1l0.11-0.62l0.75-0.27h0.83l0.35,0.13
				l0.78,0.08l0.19,0.8l-0.08,0.43v0.75l0.11,0.43v0.54l0.19,0.35l0.22,0.22l0.46,0.19h0.72l0.42-0.16l0.22-0.27l0.13-0.43
				l0.21-0.27l-0.08-0.54l0.11-0.64l-0.05-0.83l-0.27-0.35l-0.38-0.75l-0.24-0.32l-0.38-0.35l-0.51-0.62l-0.64-0.32l-0.27-0.35
				l-0.64-0.43l-0.56-0.62l-0.27-0.48l-0.54-0.56l-0.13-0.38l-0.27-0.42l-0.34-0.7v-0.43l-0.19-0.43v-0.81l0.09-0.4l-0.06-0.3
				l0.14-0.91l0.13-0.43l0.03-0.37l0.21-0.46l0.33-0.68l0.4-0.61l0.3-0.29l0.43-0.11l0.32-0.27l0.32-0.16l0.43-0.05h0.51l0.38-0.19
				l1.26,0.19h0.73l0.83,0.4l0.29,0.27l0.57,0.48l0.21,0.35l0.3,0.84l0.29,0.7l0.06,0.86l0.16,0.86l-0.09,0.24v0.81l-0.05,0.56
				l-0.86,0.26l-0.3-0.11l-0.4,0.11l-0.35-0.05l-0.83-0.27L285.93,153.84z"/>
			<path class="st0" d="M298.95,149.38v0.78l-0.18,1.18l-0.81,0.08l-0.38-0.08l-0.32,0.02l-0.43,0.14l-0.46,0.35l0.08,0.73v0.94
				l-0.11,0.81v1.5l0.09,0.51v1.53l-0.09,0.35l0.09,0.43l-0.09,0.49l0.11,0.37l-0.11,0.45l0.05,0.38v0.72l0.06,0.8l-0.08,0.46
				l0.06,0.73v0.88l-0.09,0.46l0.09,0.29l0.02,0.37l-0.06,0.38v0.96l-0.08,0.73l-0.81,0.16h-0.46l-0.27-0.11l-0.45,0.06l-0.73-0.06
				l-0.21-0.8l0.06-0.37v-0.91l-0.06-0.29l0.11-0.81l-0.05-0.56l0.03-0.32l-0.08-0.4l0.11-0.72v-0.56l-0.08-0.4l0.08-0.38
				l-0.08-0.35l0.05-0.78l-0.08-0.48l0.06-0.3l-0.03-0.4l0.05-0.78v-2.5l-0.05-0.81l0.05-0.32l-0.08-0.43v-0.89l0.08-0.37
				l-0.08-0.46l-0.4-0.32l-0.38,0.06l-0.43-0.14l-0.33,0.14l-0.86-0.27l-0.11-0.78l0.05-0.32l-0.08-0.29v-0.51l0.19-0.64l1.23-0.24
				l0.43,0.08h0.78l0.83-0.14h0.83l0.4,0.14l0.38-0.08l0.49,0.08h0.77l0.83-0.14l0.75,0.19L298.95,149.38z"/>
			<path class="st0" d="M305.9,149.36l0.05,0.37l0.13,0.27l0.02,0.38l0.22,0.4v0.91l0.11,0.41l-0.02,0.24l0.19,0.4l-0.05,0.4
				l0.13,0.38l0.03,0.43l0.18,0.86l0.11,0.81l0.11,0.27l0.05,0.46l0.06,0.83l0.22,0.78l0.13,0.7l-0.02,0.4l0.08,0.38l0.19,0.86
				l0.16,0.72l-0.05,0.54l0.16,0.27l0.08,0.48l-0.05,0.38l0.19,0.32v0.46l0.14,0.86l0.19,0.64l-0.03,0.43l0.11,0.75v0.99l-0.91,0.08
				l-0.78,0.13l-0.81-0.13l-0.29-0.78v-0.48l-0.46-0.49h-1.24l-0.35,0.08l-0.48-0.08l-0.43,0.35v0.48l-0.24,0.86l-0.89,0.14
				l-0.43-0.11l-0.33,0.16l-0.93-0.29l-0.08-0.94l0.19-0.65V165l0.16-0.46l-0.05-0.4l0.05-0.38l0.22-0.72v-0.46l0.13-0.29l0.11-0.43
				l-0.05-0.37l0.22-0.84v-0.43l0.11-0.7l0.19-0.78l0.03-0.38l0.24-0.83v-0.48l0.11-0.62l0.11-0.89l0.13-0.86l0.11-0.22V154
				l0.11-0.45l0.03-0.41l0.14-0.24l0.05-0.56l0.11-0.7l0.11-0.37v-0.32l0.08-0.46l0.13-0.38l0.05-0.48l-0.03-0.41l0.35-0.72
				l0.7-0.08l0.29,0.11h0.43l0.38-0.11l0.81,0.13L305.9,149.36z M305.23,161.72l-0.03-0.29l-0.16-0.48l-0.02-0.4v-0.48l-0.22-0.72
				l0.02-0.38l-0.13-0.4v-0.48l-0.22-0.73l0.05-0.46l-0.16-0.02l-0.11,0.86l-0.16,0.32l-0.03,0.4l-0.07,0.81l-0.16,0.94l-0.03,0.4
				l-0.21,0.7v0.51l-0.11,0.3l0.41,0.43l0.32-0.03h0.73l0.35-0.3L305.23,161.72z"/>
			<path class="st0" d="M314.22,149.49l0.05,0.4v1.18l-0.05,0.3l0.1,0.46l-0.08,0.38l0.08,0.48v0.75l-0.08,0.49l0.08,0.24v0.84
				l-0.1,0.51l0.1,0.75v0.83l-0.08,0.49l0.05,0.64l-0.08,0.57l0.1,0.24v1.37l-0.05,0.7v0.88l0.05,0.75l-0.1,0.86l0.18,0.7l0.33,0.11
				l0.27,0.16h0.72l0.7-0.32l0.16-0.72l-0.11-0.43l0.08-0.35v-0.77l-0.08-0.46l0.11-0.3l-0.11-0.4v-1.29l0.05-0.43l-0.05-0.81
				l0.05-0.37v-0.46l0.06-0.81l-0.11-0.75l0.08-0.46v-1.12l-0.05-0.51l0.05-0.35v-0.48l-0.05-0.7l0.05-0.4v-0.51l-0.08-0.78v-0.78
				l0.11-0.35l0.14-0.83l1.04-0.19l0.46,0.13l0.32-0.05l0.89,0.08v1.26l0.11,0.43v0.38l-0.11,0.83v1.64l0.06,0.24l-0.06,0.54
				l0.11,0.8l-0.08,0.33v0.91l0.08,0.81l-0.11,0.32v0.46l0.08,0.32v0.54l-0.08,0.81l0.08,0.73v0.86l-0.08,0.43l0.11,0.32l-0.05,0.35
				l0.05,0.48l-0.05,0.43l0.05,0.3l-0.05,0.49v0.88l-0.11,0.22l-0.14,0.57l-0.35,0.64l-0.53,0.53l-0.22,0.35l-0.43,0.16l-0.7,0.4
				l-0.43,0.06l-0.4,0.19l-1.18,0.08l-0.35-0.16l-0.4,0.02l-0.37-0.13l-0.73-0.38l-0.35-0.35l-0.37-0.16l-0.27-0.4l-0.27-0.16
				l-0.37-0.78l-0.14-0.73l-0.11-0.86v-1.26l0.11-0.32v-0.48l-0.08-0.4v-1.53l0.08-0.46l-0.08-0.46l0.05-0.37l-0.08-0.8l0.06-0.3
				l-0.02-0.43l0.08-0.94l-0.06-0.38l0.06-0.35l-0.08-0.46l0.05-0.38v-0.72l-0.08-0.4l0.11-0.97l-0.11-0.75l0.11-0.46l-0.03-0.37
				v-0.7l-0.08-0.54l0.25-0.7l0.67-0.24l0.81,0.11l0.43-0.08l0.7,0.21L314.22,149.49z"/>
			<path class="st0" d="M328.61,148.63h0.32l0.48,0.16l0.59,0.46l0.4,0.11l0.24,0.4l0.32,0.24l0.43,0.7l0.06,0.37l0.21,0.46
				l0.24,0.73v0.46l0.19,0.7l-0.11,0.83v0.94l-0.14,0.29l-0.19,0.84l-0.13,0.24l-0.24,0.7l-0.48,0.64l-0.05,0.62l0.38,0.22l0.22,0.3
				l0.24,0.86l0.21,0.67l-0.11,0.83l0.11,0.8l-0.05,0.35l0.05,0.45l-0.08,0.37l-0.03,0.43l0.16,0.51v2.55l-0.11,0.21l-0.81,0.22
				l-0.29-0.03l-0.41,0.08h-0.38l-0.59-0.16l-0.35-0.45l-0.14-0.94l0.08-0.35l-0.14-0.78l0.11-0.54l-0.08-0.77l0.08-0.76l-0.08-0.83
				l0.02-0.43v-0.75l-0.42-0.86l-0.48-0.26l-1.5-0.11l-0.48,0.4l0.02,0.43l-0.05,0.43v1.67l0.05,0.35v0.89l-0.05,0.33l0.05,0.48
				l-0.05,0.35l0.11,0.4v0.91l-0.19,1.13l-0.73,0.24l-0.4-0.16l-0.75,0.14l-0.75-0.14l-0.22-0.83v-1.26l0.05-0.72l-0.08-0.4v-0.37
				l0.11-0.51l-0.11-0.7l0.08-0.48l-0.05-0.35l0.08-0.91l-0.08-0.7l0.05-0.53l-0.08-0.24l0.11-0.86l-0.11-0.37v-2.87l0.05-0.75
				l-0.05-0.78l0.11-0.4v-0.54l-0.11-0.73l0.08-0.51l-0.05-0.72l0.05-0.35v-0.48l-0.08-0.38l0.21-0.88l1.18-0.14l0.35,0.08l0.4-0.05
				h0.8l0.32,0.13l0.46-0.08l0.4,0.05l1.1-0.08L328.61,148.63z M328.53,156.06l0.21-0.32l0.19-0.64l0.21-0.83v-0.67l-0.16-0.51
				l-0.11-0.73l-0.21-0.4l-0.49-0.51h-1.15l-0.7,0.06l-0.46,0.37l0.11,0.43v0.4l-0.08,0.3l0.08,0.96l-0.11,0.41v0.83l0.11,0.4
				l-0.05,0.3l0.4,0.48l0.72-0.08l0.32,0.05l0.83-0.08L328.53,156.06z"/>
			<path class="st0" d="M340.81,149.36l0.06,0.37L341,150l0.03,0.38l0.21,0.4v0.91l0.11,0.41l-0.03,0.24l0.19,0.4l-0.05,0.4
				l0.14,0.38l0.02,0.43l0.19,0.86l0.11,0.81l0.11,0.27l0.05,0.46l0.05,0.83l0.22,0.78l0.13,0.7l-0.02,0.4l0.08,0.38l0.19,0.86
				l0.16,0.72l-0.05,0.54l0.16,0.27l0.08,0.48l-0.05,0.38l0.19,0.32v0.46l0.14,0.86l0.19,0.64l-0.02,0.43l0.11,0.75v0.99l-0.91,0.08
				l-0.78,0.13l-0.8-0.13l-0.3-0.78v-0.48l-0.46-0.49h-1.24l-0.35,0.08l-0.48-0.08l-0.43,0.35v0.48l-0.24,0.86l-0.89,0.14
				l-0.43-0.11l-0.32,0.16l-0.94-0.29l-0.08-0.94l0.19-0.65V165l0.16-0.46l-0.06-0.4l0.06-0.38l0.21-0.72v-0.46l0.13-0.29l0.11-0.43
				l-0.06-0.37l0.21-0.84v-0.43l0.11-0.7l0.19-0.78l0.03-0.38l0.24-0.83v-0.48l0.11-0.62l0.11-0.89l0.14-0.86l0.11-0.22V154
				l0.11-0.45l0.02-0.41l0.14-0.24l0.05-0.56l0.11-0.7l0.11-0.37v-0.32l0.08-0.46l0.13-0.38l0.05-0.48l-0.03-0.41l0.35-0.72
				l0.7-0.08l0.29,0.11h0.43l0.37-0.11l0.8,0.13L340.81,149.36z M340.15,161.72l-0.03-0.29l-0.16-0.48l-0.03-0.4v-0.48l-0.22-0.72
				l0.03-0.38l-0.13-0.4v-0.48l-0.22-0.73l0.05-0.46l-0.16-0.02l-0.11,0.86l-0.16,0.32l-0.02,0.4l-0.08,0.81l-0.16,0.94l-0.03,0.4
				l-0.21,0.7v0.51l-0.11,0.3l0.4,0.43l0.32-0.03h0.73l0.35-0.3L340.15,161.72z"/>
			<path class="st0" d="M349.81,149.19l0.16,0.29l0.08,0.46l0.24,0.32v0.46l0.29,0.72l0.27,0.73l0.24,0.88l0.14,0.32l0.03,0.3
				l0.16,0.43l0.38,1.12l0.27,0.73l0.08,0.51l0.3,0.72l0.06,0.4l0.32,0.8l0.02,0.38h0.11l0.11-0.97l-0.08-0.35v-1.69l0.08-0.64
				l-0.08-0.54l0.08-0.35l-0.11-0.32l0.08-0.4v-0.96l-0.08-0.27l0.06-0.49l-0.06-0.29v-0.97l0.11-0.72l-0.02-0.32l0.19-0.86
				l0.67-0.19l0.4-0.05l0.43,0.08l0.3-0.08l0.75,0.16l0.17,0.83v0.43l0.08,0.83l-0.08,0.4l0.05,0.3v0.97l-0.05,0.4l0.08,0.3v0.77
				l-0.11,0.46v0.72l0.11,0.48l-0.02,0.32v0.56l-0.08,0.35v0.46l0.08,0.78l-0.08,0.29l0.08,0.86l-0.03,0.35l0.05,0.38l-0.02,0.43
				v2.01l-0.08,0.54l0.11,0.75l-0.05,0.3l0.05,0.51l-0.08,0.43l0.02,0.35l-0.06,0.35l0.11,0.43l-0.14,0.4v0.78l-0.83,0.14h-0.38
				l-0.45,0.13l-0.32-0.03l-0.75-0.21l-0.46-1.02l-0.18-0.77l-0.19-0.67l-0.19-0.32l-0.08-0.46l-0.16-0.32l-0.11-0.51l-0.13-0.35
				l-0.08-0.4l-0.29-0.73l-0.24-0.7l-0.19-0.72l-0.22-0.84l-0.21-0.38l-0.13-0.72l-0.16-0.46l-0.16-0.29l-0.08-0.48L349.7,157
				l0.08,0.46l-0.11,0.37l0.08,0.35v1.24l-0.08,0.78l0.11,0.83l-0.11,0.43l0.06,0.46l-0.06,0.29l0.11,0.46l-0.05,0.32l0.05,0.51
				l-0.11,0.72v1.31l0.08,0.67l-0.14,0.96h-0.83l-0.38,0.08h-0.75l-0.83-0.14v-1.26l-0.08-0.35l0.05-0.35v-2.5l-0.08-0.7V161
				l0.05-0.27v-0.45l0.06-0.43l-0.08-0.81v-0.45l0.05-0.75l-0.05-0.37l0.05-0.75l-0.08-0.94l0.05-0.41v-1.88l-0.05-0.89l0.08-0.72
				l-0.08-0.37v-0.86l0.11-0.89l-0.11-0.4l0.18-0.83l0.8-0.14l0.32,0.03l0.49,0.13l0.32-0.16l0.77,0.16L349.81,149.19z"/>
			<path class="st0" d="M367.09,149.38v0.78l-0.19,1.18l-0.8,0.08l-0.38-0.08l-0.32,0.02l-0.43,0.14l-0.46,0.35l0.08,0.73v0.94
				l-0.11,0.81v1.5l0.08,0.51v1.53l-0.08,0.35l0.08,0.43l-0.08,0.49l0.11,0.37l-0.11,0.45l0.05,0.38v0.72l0.06,0.8l-0.08,0.46
				l0.06,0.73v0.88l-0.08,0.46l0.08,0.29l0.03,0.37l-0.06,0.38v0.96l-0.08,0.73l-0.81,0.16h-0.45l-0.27-0.11l-0.46,0.06l-0.73-0.06
				l-0.22-0.8l0.06-0.37v-0.91l-0.06-0.29l0.11-0.81l-0.05-0.56l0.03-0.32l-0.08-0.4l0.11-0.72v-0.56l-0.08-0.4l0.08-0.38
				l-0.08-0.35l0.05-0.78l-0.08-0.48l0.06-0.3l-0.03-0.4l0.05-0.78v-2.5l-0.05-0.81l0.05-0.32l-0.08-0.43v-0.89l0.08-0.37
				l-0.08-0.46l-0.4-0.32l-0.38,0.06l-0.43-0.14l-0.32,0.14l-0.86-0.27l-0.11-0.78l0.05-0.32l-0.08-0.29v-0.51l0.19-0.64l1.24-0.24
				l0.43,0.08h0.78l0.83-0.14h0.83l0.4,0.14l0.38-0.08l0.48,0.08h0.78l0.83-0.14l0.75,0.19L367.09,149.38z"/>
		</g>
		<rect x="2.82" y="147.19" class="st1" width="8.3" height="2.77"/>
		<rect x="381.99" y="147.19" class="st1" width="11.07" height="2.77"/>
	</g>
	<path class="st2" d="M352.35,50.29c-0.12-0.39-0.13-0.54-0.18-0.58c-0.17-0.17-0.34-0.33-0.52-0.44
		c-3.82-2.38-7.47-1.95-11.14,1.31c-5.16,4.58-10.32,4.51-15.52-0.41c-4.93-4.67-10.03-5.55-15.06-0.13
		c-3.86,4.17-7.89,3.94-12.04,1.58c-1.54-0.88-3.11-1.81-4.7-2.25c-3.1-0.86-6.18-0.74-9.03,2.07c1.28-0.15,2.53-0.65,3.79-0.84
		c3.49-0.53,6.89,0.36,10.18,2.41c4.79,2.98,9.56,3.03,14.33-0.22c0.6-0.41,1.24-0.7,1.85-1.06c2.23-1.33,4.45-1.41,6.72-0.25
		c2.5,1.28,5,2.65,7.55,3.45c1.95,0.61,4.05,1.02,5.96,0.37c2.52-0.86,4.96-2.65,7.34-4.4c2.27-1.66,4.49-3,6.98-1.76
		C349.98,49.67,351.12,49.89,352.35,50.29z"/>
	<g>
		<path class="st3" d="M348.91,66.85c-2.2-0.84-4.33-2.04-6.53-0.41c-1.2,0.88-2.35,1.95-3.51,2.98c-0.52,0.47-1.02,1.03-1.51,1.59
			c-3.31,3.77-6.8,4.22-10.44,1.64c-0.97-0.69-1.92-1.41-2.9-2.05c-2.78-1.82-5.6-2.36-8.37-0.17c-5.66,4.45-11.18,3.4-16.58-1.25
			c-3.24-2.79-6.61-4.38-10.2-3.47c-2.02,0.51-3.98,1.83-5.9,2.75c1.93-3.54,6.91-6.05,10.17-4.73c1.95,0.79,3.9,1.9,5.74,3.31
			c4.95,3.82,9.79,3.54,14.48-0.96c4.29-4.11,8.27-3.22,12.08,1.62c4.43,5.61,8.87,4.95,13.34,0.27c3.08-3.23,6.27-4.37,9.68-1.7
			C348.62,66.4,348.76,66.66,348.91,66.85z"/>
		<path class="st3" d="M284.14,43.66c3.64-3.56,7.46-4.9,11.5-3.61c2.12,0.68,4.21,1.51,6.3,2.41c2.43,1.04,4.84,0.83,7.11-0.73
			c6.09-4.19,12.22-3.78,18.41-1.01c1.45,0.65,2.93,1.08,4.39,1.66c3.2,1.28,6.29,0.74,9.43-0.96c1.9-1.03,3.93-1.46,5.92-1.72
			c1.04-0.14,2.12,0.66,3.18,1.05c-0.02,0.25-0.04,0.5-0.06,0.75c-0.51-0.12-1.03-0.13-1.52-0.36c-2.34-1.13-4.68-0.57-6.59,1.63
			c-4.97,5.71-9.89,4.27-14.91,0.61c-3.04-2.2-6.14-4.14-9.46-3.48c-2.1,0.41-4.16,1.53-6.23,2.45c-0.62,0.27-1.2,0.89-1.77,1.42
			c-3.7,3.33-7.56,3.42-11.38,1.09c-4.56-2.79-9.1-3.76-13.77-1.12C284.52,43.83,284.32,43.69,284.14,43.66z"/>
		<path class="st3" d="M352.35,49.45c-1.23-0.4-2.37-0.62-3.47-1.16c-2.5-1.24-4.71,0.1-6.98,1.76c-2.39,1.75-4.83,3.54-7.34,4.4
			c-1.91,0.65-4.01,0.24-5.96-0.37c-2.56-0.8-5.06-2.18-7.55-3.45c-2.27-1.16-4.5-1.08-6.72,0.25c-0.62,0.37-1.25,0.65-1.85,1.06
			c-4.76,3.25-9.53,3.21-14.33,0.22c-3.3-2.05-6.7-2.94-10.18-2.41c-1.27,0.19-2.52,0.69-3.79,0.84c2.85-2.82,5.93-2.93,9.03-2.07
			c1.59,0.44,3.16,1.38,4.7,2.26c4.15,2.36,8.18,2.59,12.04-1.58c5.03-5.43,10.13-4.54,15.06,0.13c5.2,4.92,10.36,5,15.52,0.41
			c3.67-3.26,7.32-3.69,11.14-1.31c0.18,0.11,0.35,0.27,0.52,0.44C352.22,48.91,352.23,49.05,352.35,49.45z"/>
		<path class="st3" d="M348.13,58.37c-3.26-1.68-6.04-0.1-8.62,2.86c-3.89,4.46-7.84,4.09-11.9,0.77c-1.88-1.55-3.8-3.03-5.73-4.39
			c-2.81-1.97-5.56-1.92-8.26,0.86c-1.34,1.39-2.77,2.54-4.18,3.69c-4.52,3.67-8.87,2.66-13.07-1.65c-0.56-0.58-1.13-1.13-1.7-1.68
			c-2.53-2.45-5.17-2.95-7.93-1.41c-0.59,0.33-1.21,0.58-1.86,0.57c1.81-2.42,3.9-3.46,6.11-2.81c2.11,0.62,4.23,1.5,6.22,2.86
			c5.75,3.95,11.31,3.52,16.81-1.3c2.83-2.48,5.64-1.82,8.52-0.02c2.63,1.64,5.3,3.21,8.03,4.18c3.46,1.23,6.71-0.8,9.87-3.07
			c2.24-1.62,4.51-2.17,6.86-0.76c0.18,0.11,0.37,0.24,0.53,0.43C347.9,57.59,347.94,57.83,348.13,58.37z"/>
	</g>
</g>
</svg>
