<?xml version="1.0" encoding="UTF-8"?>
<!-- Generator: Adobe Illustrator 23.0.3, SVG Export Plug-In . SVG Version: 6.00 Build 0)  -->
<svg version="1.1" id="Layer_1" xmlns="http://www.w3.org/2000/svg" xmlns:xlink="http://www.w3.org/1999/xlink" x="0px" y="0px" viewBox="0 0 26.45 26.45" style="enable-background:new 0 0 26.45 26.45;" xml:space="preserve">
<style type="text/css">
	.st0{clip-path:url(#SVGID_2_);}
	.st1{clip-path:url(#SVGID_4_);enable-background:new    ;}
	.st2{clip-path:url(#SVGID_6_);}
	.st3{clip-path:url(#SVGID_8_);}
	.st4{clip-path:url(#SVGID_10_);fill:#FFFFFF;}
	.st5{fill-rule:evenodd;clip-rule:evenodd;fill:#FFFFFF;}
</style>
<g>
	<defs>
		<path id="SVGID_1_" d="M0.39,3.79l22.27,22.27c0.47,0.47,1.2,0.52,1.61,0.1l1.89-1.89c0.42-0.42,0.37-1.14-0.1-1.61L3.8,0.39    c-0.47-0.47-1.2-0.52-1.61-0.1L0.29,2.18C-0.13,2.6-0.09,3.32,0.39,3.79z"/>
	</defs>
	<clipPath id="SVGID_2_">
		<use xlink:href="#SVGID_1_" style="overflow:visible;"/>
	</clipPath>
	<g class="st0">
		<defs>
			<rect id="SVGID_3_" x="-1.9" y="-1.6" width="30" height="30"/>
		</defs>
		<clipPath id="SVGID_4_">
			<use xlink:href="#SVGID_3_" style="overflow:visible;"/>
		</clipPath>
		<g class="st1">
			<g>
				<defs>
					<rect id="SVGID_5_" x="-1.9" y="-1.6" width="30" height="30"/>
				</defs>
				<clipPath id="SVGID_6_">
					<use xlink:href="#SVGID_5_" style="overflow:visible;"/>
				</clipPath>
				<g class="st2">
					<defs>
						<rect id="SVGID_7_" x="-1.9" y="-1.6" width="30" height="30"/>
					</defs>
					<clipPath id="SVGID_8_">
						<use xlink:href="#SVGID_7_" style="overflow:visible;"/>
					</clipPath>
					<g class="st3">
						<defs>
							<rect id="SVGID_9_" x="-1.9" y="-0.6" width="30" height="28"/>
						</defs>
						<clipPath id="SVGID_10_">
							<use xlink:href="#SVGID_9_" style="overflow:visible;"/>
						</clipPath>
						<rect x="-6.9" y="-6.6" class="st4" width="40" height="40"/>
					</g>
				</g>
			</g>
		</g>
	</g>
</g>
<path class="st5" d="M22.66,0.39L0.39,22.66c-0.47,0.47-0.52,1.2-0.1,1.61l1.89,1.89c0.42,0.42,1.14,0.37,1.61-0.1L26.07,3.8  c0.47-0.47,0.52-1.2,0.1-1.61l-1.89-1.89C23.85-0.13,23.13-0.09,22.66,0.39z"/>
</svg>